<svg width="24" height="24" viewBox="0 0 24 24" fill="none" xmlns="http://www.w3.org/2000/svg">
<path d="M12 21.9869C6.477 21.9869 2 17.5099 2 11.9869C2 6.46383 6.477 1.98682 12 1.98682C17.523 1.98682 22 6.46383 22 11.9869C21.994 17.5069 17.52 21.9809 12 21.9869ZM12 3.98682C10.4177 3.98682 8.87103 4.45602 7.55544 5.33507C6.23984 6.21413 5.21447 7.46356 4.60896 8.92538C4.00346 10.3872 3.84504 11.9957 4.15372 13.5476C4.4624 15.0994 5.22433 16.5249 6.34315 17.6437C7.46197 18.7626 8.88743 19.5245 10.4393 19.8332C11.9911 20.1419 13.5997 19.9834 15.0615 19.3779C16.5233 18.7724 17.7727 17.747 18.6518 16.4314C19.5308 15.1158 20 13.5691 20 11.9869C19.9976 9.86585 19.154 7.83239 17.6542 6.33261C16.1544 4.83283 14.121 3.98921 12 3.98682V3.98682ZM11.95 15.4869L7 10.5368L8.414 9.12284L11.95 12.6579L15.486 9.12284L16.9 10.5368L11.95 15.4869Z" fill="#FF5C2A"/>
</svg>
