<svg width="24" height="24" viewBox="0 0 24 24" fill="none" xmlns="http://www.w3.org/2000/svg">
<g clip-path="url(#clip0_418:106)">
<path d="M21.0679 2.337C20.447 1.792 17.9322 0.0399972 12.3319 0.0169972C12.3319 0.0169972 5.72353 -0.362003 2.5044 2.469C0.713793 4.185 0.0866626 6.698 0.0146626 9.815C-0.0573374 12.932 -0.137685 18.774 5.73814 20.362H5.74336L5.73814 22.781C5.73814 22.781 5.69953 23.761 6.37153 23.958C7.18336 24.202 7.66336 23.456 8.44075 22.654C8.86649 22.213 9.45292 21.567 9.89849 21.074C12.4519 21.3006 15.0269 21.1123 17.5148 20.517L17.3583 20.549C18.1701 20.296 22.7635 19.733 23.5065 13.892C24.2828 7.862 23.1371 4.058 21.0679 2.337V2.337ZM21.7482 13.452C21.1148 18.327 17.3938 18.637 16.7093 18.847C15.215 19.211 13.4995 19.419 11.7329 19.419C11.2258 19.419 10.7228 19.402 10.2251 19.368L10.2919 19.372C10.2919 19.372 7.74788 22.311 6.95588 23.075C6.6971 23.323 6.41223 23.303 6.41744 22.808C6.41744 22.485 6.43727 18.79 6.43727 18.79C1.46301 17.468 1.75101 12.492 1.80944 9.893C1.86788 7.294 2.3771 5.158 3.89327 3.724C6.61884 1.357 12.2296 1.708 12.2296 1.708C16.9701 1.727 19.2397 3.096 19.7677 3.555C21.5145 4.99 22.4046 8.422 21.7482 13.451V13.452ZM14.9541 9.664V9.678C14.9519 9.75587 14.9186 9.82996 14.8611 9.88498C14.8035 9.94 14.7261 9.97175 14.6449 9.97368C14.5636 9.9756 14.4847 9.94756 14.4244 9.89533C14.364 9.8431 14.327 9.77067 14.3207 9.693V9.692C14.342 9.48321 14.3157 9.27249 14.2437 9.07439C14.1717 8.87628 14.0557 8.6955 13.9038 8.54453C13.7518 8.39356 13.5674 8.27599 13.3634 8.19993C13.1594 8.12387 12.9406 8.09114 12.7221 8.104H12.7263C12.6452 8.09798 12.5696 8.06234 12.5152 8.00444C12.4607 7.94654 12.4316 7.87081 12.4337 7.79289C12.4358 7.71498 12.4691 7.64082 12.5267 7.58576C12.5843 7.53069 12.6617 7.49891 12.743 7.497H12.7607H12.7597L12.8317 7.496C13.123 7.4959 13.4113 7.5532 13.6785 7.66433C13.9458 7.77547 14.1863 7.93806 14.3853 8.14202C14.5842 8.34598 14.7372 8.58695 14.8349 8.84997C14.9326 9.11299 14.9728 9.39245 14.9531 9.671V9.665L14.9541 9.664ZM15.9465 10.195C15.9955 8.207 14.6995 6.651 12.239 6.477C12.1963 6.47572 12.1543 6.46619 12.1156 6.44898C12.0768 6.43177 12.0421 6.40724 12.0135 6.37686C11.9848 6.34647 11.9629 6.31086 11.949 6.27216C11.9351 6.23346 11.9295 6.19246 11.9325 6.15163C11.9355 6.1108 11.9471 6.07097 11.9666 6.03454C11.9861 5.99811 12.013 5.96582 12.0458 5.93961C12.0786 5.91341 12.1166 5.89382 12.1576 5.88203C12.1985 5.87024 12.2414 5.86649 12.2839 5.871H12.2828H12.3006C12.8845 5.87098 13.4623 5.98535 13.9984 6.20708C14.5345 6.42882 15.0177 6.75324 15.4183 7.16043C15.8188 7.56761 16.1283 8.04897 16.3277 8.57493C16.5271 9.1009 16.6122 9.66037 16.5778 10.219L16.5788 10.208C16.5732 10.2855 16.5369 10.358 16.4773 10.4106C16.4176 10.4633 16.3393 10.492 16.2582 10.491C16.1771 10.49 16.0996 10.4593 16.0414 10.4051C15.9832 10.351 15.9489 10.2776 15.9454 10.2V10.192L15.9465 10.195ZM18.2421 10.824V10.826C18.2379 10.9035 18.2029 10.9765 18.1443 11.0301C18.0857 11.0837 18.0079 11.1137 17.9269 11.1141C17.8459 11.1145 17.7678 11.0852 17.7087 11.0322C17.6495 10.9792 17.6138 10.9065 17.6087 10.829C17.5837 7.007 14.9239 4.926 11.7006 4.904C11.6591 4.904 11.6179 4.89616 11.5796 4.88093C11.5412 4.86571 11.5064 4.84339 11.477 4.81525C11.4476 4.78711 11.4244 4.75371 11.4085 4.71695C11.3926 4.68019 11.3844 4.64079 11.3844 4.601C11.3844 4.56121 11.3926 4.52181 11.4085 4.48504C11.4244 4.44828 11.4476 4.41488 11.477 4.38674C11.5064 4.35861 11.5412 4.33629 11.5796 4.32106C11.6179 4.30583 11.6591 4.298 11.7006 4.298C15.31 4.322 18.2108 6.709 18.2401 10.823L18.2421 10.824ZM17.6943 15.422V15.431C17.1663 16.322 16.1781 17.306 15.1607 16.992L15.1514 16.978C13.3375 16.3383 11.6372 15.4347 10.1103 14.299L10.1531 14.329C9.39332 13.7509 8.70408 13.0923 8.09849 12.366L8.07866 12.341C7.53032 11.6795 7.04095 10.975 6.61571 10.235L6.57397 10.156C6.07085 9.36111 5.65373 8.51908 5.3291 7.643L5.29779 7.545C4.97014 6.57 5.99171 5.623 6.92666 5.117H6.93605C7.11999 5.00416 7.34087 4.96024 7.55647 4.99363C7.77206 5.02702 7.96726 5.13538 8.10475 5.298L8.10579 5.3C8.10579 5.3 8.71205 5.993 8.97188 6.336C9.21605 6.655 9.54475 7.166 9.71484 7.451C9.8429 7.64574 9.89502 7.87759 9.86198 8.10559C9.82895 8.33359 9.71289 8.54306 9.53431 8.697L9.53327 8.698L8.94684 9.148C8.8554 9.23257 8.78474 9.33558 8.73998 9.44956C8.69522 9.56354 8.67749 9.68564 8.68805 9.807V9.804C8.97843 10.7313 9.50251 11.5759 10.2141 12.2632C10.9256 12.9505 11.8027 13.4594 12.7681 13.745L12.8119 13.756C12.9379 13.7655 13.0646 13.7483 13.1829 13.7056C13.3012 13.6629 13.4082 13.5958 13.4964 13.509L13.966 12.947C14.1273 12.7751 14.347 12.6636 14.586 12.6323C14.825 12.601 15.0678 12.6519 15.2714 12.776L15.2672 12.774C16.1155 13.237 16.8491 13.746 17.518 14.323L17.5065 14.313C17.6762 14.4427 17.7891 14.6284 17.8231 14.8338C17.8571 15.0392 17.8096 15.2494 17.6901 15.423L17.6922 15.42L17.6943 15.422Z" fill="#B83E18"/>
</g>
<defs>
<clipPath id="clip0_418:106">
<rect width="24" height="24" fill="white"/>
</clipPath>
</defs>
</svg>
