<svg width="28" height="24" viewBox="0 0 28 24" fill="none" xmlns="http://www.w3.org/2000/svg">
<g clip-path="url(#clip0_426:238)">
<path d="M16.3782 11.974C16.3782 12.2905 16.3165 12.6039 16.1966 12.8963C16.0767 13.1887 15.9009 13.4543 15.6794 13.6781C15.4578 13.9019 15.1947 14.0794 14.9052 14.2006C14.6157 14.3217 14.3054 14.384 13.9921 14.384C13.6787 14.384 13.3685 14.3217 13.079 14.2006C12.7895 14.0794 12.5264 13.9019 12.3048 13.6781C12.0833 13.4543 11.9075 13.1887 11.7876 12.8963C11.6677 12.6039 11.606 12.2905 11.606 11.974C11.606 11.3348 11.8574 10.7218 12.3048 10.2699C12.7523 9.81791 13.3593 9.564 13.9921 9.564C14.6249 9.564 15.2319 9.81791 15.6794 10.2699C16.1268 10.7218 16.3782 11.3348 16.3782 11.974V11.974Z" fill="#D14A20"/>
<path d="M13.9912 17.494C11.058 17.5699 8.13221 17.1626 5.32878 16.288L5.51987 16.339C4.24439 15.93 3.05548 15.2847 2.01393 14.436L2.03473 14.452C1.64027 14.1662 1.31141 13.7979 1.07051 13.3722C0.82961 12.9465 0.682329 12.4733 0.638685 11.985L0.637695 11.972C0.637695 10.378 2.3674 8.818 5.27235 7.8C7.75948 6.973 10.6219 6.496 13.5941 6.496L14.007 6.499H13.9862C16.9711 6.45338 19.9432 6.90407 22.7832 7.833L22.5902 7.778C23.8202 8.17546 24.971 8.78959 25.9892 9.592L25.9654 9.574C26.3524 9.84696 26.6758 10.202 26.9128 10.6143C27.1498 11.0266 27.2948 11.4862 27.3377 11.961L27.3387 11.974C27.3387 13.63 25.404 15.306 22.2862 16.348C19.9466 17.077 17.2565 17.497 14.4694 17.497C14.3011 17.497 14.1337 17.495 13.9664 17.492H13.9912V17.494ZM13.9912 7.654C13.8862 7.652 13.7615 7.652 13.6367 7.652C10.7842 7.652 8.03671 8.104 5.45948 8.941L5.64859 8.888C2.9773 9.829 1.77928 11.116 1.77928 11.975C1.77928 12.868 3.0674 14.275 5.89116 15.249C8.11789 15.946 10.6773 16.348 13.3298 16.348C13.5624 16.348 13.7941 16.345 14.0248 16.339L13.9912 16.34C16.7415 16.3939 19.483 16.0099 22.1149 15.202L21.9298 15.251C24.8605 14.267 26.207 12.86 26.207 11.971C26.1594 11.6656 26.0498 11.3734 25.8852 11.1127C25.7207 10.8521 25.5046 10.6285 25.2506 10.456L25.2426 10.451C24.3594 9.7593 23.3646 9.22681 22.3021 8.877L22.2327 8.857C19.8882 8.091 17.1902 7.649 14.3912 7.649C14.2506 7.649 14.111 7.65 13.9714 7.652H13.9922L13.9912 7.654Z" fill="#D14A20"/>
<path d="M8.57747 23.986L8.52499 23.987C8.07648 23.987 7.65569 23.868 7.29232 23.66L7.30519 23.667C5.94083 22.867 5.46559 20.575 6.03786 17.526C6.72796 14.398 7.84678 11.632 9.34876 9.126L9.28044 9.25C10.701 6.68769 12.5138 4.36839 14.6517 2.378L14.6715 2.36C15.599 1.50437 16.6667 0.818143 17.827 0.332L17.8993 0.305C18.3022 0.109 18.7755 -0.005 19.2755 -0.005C19.7715 -0.005 20.2418 0.108 20.6616 0.309L20.6418 0.301C22.0626 1.127 22.5339 3.661 21.8676 6.907C21.1547 9.874 20.0676 12.487 18.6379 14.866L18.7072 14.743C17.2695 17.373 15.5299 19.625 13.4933 21.562L13.4794 21.575C12.5173 22.4645 11.4032 23.1699 10.1913 23.657L10.1181 23.683C9.66262 23.864 9.13588 23.975 8.5844 23.988H8.57846L8.57747 23.986ZM9.77054 9.539L10.2646 9.827C8.89727 12.107 7.824 14.753 7.18935 17.567L7.15569 17.747C6.62796 20.556 7.13687 22.245 7.86856 22.673C8.05767 22.775 8.28143 22.834 8.51905 22.834L8.57945 22.833H8.57648C9.52202 22.833 11.0101 22.228 12.7309 20.711C14.6886 18.8451 16.3491 16.685 17.6537 14.307L17.721 14.172C19.0815 11.9043 20.0914 9.44032 20.7161 6.865L20.7537 6.683C21.3765 3.625 20.8389 1.753 20.0745 1.305C19.7853 1.19318 19.4761 1.14361 19.1669 1.15945C18.8576 1.17529 18.555 1.2562 18.2785 1.397L18.2913 1.391C17.2321 1.83101 16.2579 2.45588 15.4131 3.237L15.42 3.231C13.402 5.10654 11.6863 7.28882 10.3349 9.699L10.2666 9.831L9.77054 9.539Z" fill="#D14A20"/>
<path d="M19.4061 24C18.1131 24 16.4754 23.213 14.7626 21.724C12.6133 19.7488 10.7874 17.4422 9.35267 14.89L9.28139 14.753C7.86554 12.404 6.75564 9.678 6.09822 6.778L6.06257 6.593C5.89263 5.81914 5.80796 5.02867 5.8101 4.236C5.8101 3.709 5.84673 3.192 5.91703 2.685L5.9101 2.743C5.94946 2.26723 6.09146 1.80593 6.32614 1.39149C6.56081 0.977047 6.88246 0.619517 7.26851 0.344L7.27841 0.337C8.69426 -0.493 11.1051 0.361 13.5576 2.565C15.5607 4.47712 17.2688 6.68159 18.6249 9.105L18.6962 9.243C20.168 11.6544 21.2514 14.2865 21.9061 17.041L21.9438 17.227C22.1051 17.936 22.1982 18.751 22.1982 19.587C22.1982 20.164 22.1547 20.73 22.0695 21.283L22.0774 21.221C22.0297 21.7089 21.8787 22.1807 21.6346 22.6045C21.3905 23.0282 21.059 23.394 20.6626 23.677L20.6517 23.684C20.2873 23.8924 19.8754 24.0013 19.4566 24L19.4032 23.999H19.4061V24ZM10.2695 14.177C11.6516 16.6591 13.4129 18.9054 15.4883 20.833L15.5081 20.851C17.6527 22.714 19.3537 23.117 20.0903 22.685C20.8556 22.239 21.416 20.409 20.8368 17.452C20.1418 14.562 19.0675 12.018 17.6497 9.711L17.7141 9.823C16.4101 7.457 14.7583 5.3045 12.815 3.439L12.8032 3.428C10.4923 1.354 8.62 0.888 7.85465 1.334C7.61689 1.5281 7.42155 1.76987 7.28096 2.04405C7.14037 2.31823 7.05758 2.61888 7.03782 2.927V2.934C6.88397 4.10065 6.93829 5.2857 7.19822 6.433L7.18535 6.367C7.85168 9.319 8.91505 11.926 10.3358 14.291L10.2705 14.174L10.2695 14.177Z" fill="#D14A20"/>
</g>
<defs>
<clipPath id="clip0_426:238">
<rect width="26.7327" height="24" fill="white" transform="translate(0.633789)"/>
</clipPath>
</defs>
</svg>
