<svg width="24" height="24" viewBox="0 0 24 24" fill="none" xmlns="http://www.w3.org/2000/svg">
<path d="M15.287 15.2C14.2732 16.224 12.8965 16.8 11.4629 16.8H10.5346C9.27413 16.8 8.06532 16.2943 7.17405 15.3941C6.28279 14.4939 5.78209 13.273 5.78209 12C5.78209 10.727 6.28279 9.50606 7.17405 8.60589C8.06532 7.70571 9.27413 7.2 10.5346 7.2H11.4629C12.8965 7.2 14.2732 7.776 15.287 8.8V15.2ZM12.1187 9.6V14.4V9.6ZM9.74248 12H19.2474H9.74248ZM16.8712 9.6V14.4V9.6ZM2.61377 16.8V7.2L12.1187 1.6L21.6237 7.2V16.8L12.1187 22.4L2.61377 16.8Z" stroke="#D14A20"/>
</svg>
