<svg width="24" height="24" viewBox="0 0 24 24" fill="none" xmlns="http://www.w3.org/2000/svg">
<path d="M14.3346 14.883C13.5902 14.9563 12.8403 14.8185 12.1693 14.485C12.0172 14.3622 11.8916 14.2092 11.8003 14.0355C11.7091 13.8618 11.654 13.671 11.6386 13.475C11.6383 13.4457 11.6323 13.4167 11.6209 13.3897C11.6095 13.3628 11.5929 13.3383 11.5721 13.3179C11.5513 13.2974 11.5267 13.2813 11.4997 13.2706C11.4727 13.2598 11.4438 13.2545 11.4148 13.255C11.1013 13.2518 10.7877 13.2518 10.4742 13.255C10.4195 13.2494 10.3649 13.2658 10.322 13.3006C10.2792 13.3354 10.2517 13.3858 10.2455 13.441C10.2277 13.7848 10.2853 14.1284 10.4142 14.4472C10.5431 14.7659 10.7401 15.052 10.991 15.285C11.6247 15.7848 12.3943 16.0775 13.197 16.124C14.0334 16.2218 14.8798 16.1854 15.7049 16.016C16.3384 15.8967 16.9192 15.5807 17.3663 15.112C17.6135 14.8042 17.7792 14.4379 17.8478 14.0477C17.9164 13.6574 17.8856 13.2559 17.7584 12.881C17.6517 12.6167 17.4864 12.3805 17.2753 12.1907C17.0642 12.0009 16.8129 11.8625 16.5405 11.786C15.2732 11.336 13.9029 11.371 12.6099 11.029C12.3851 10.959 12.1108 10.881 12.0108 10.641C11.953 10.4721 11.949 10.2892 11.9995 10.1179C12.0499 9.94656 12.1522 9.79553 12.292 9.686C12.6983 9.45143 13.1609 9.33513 13.6287 9.35C14.2625 9.29 14.9014 9.38252 15.493 9.62C15.6709 9.72561 15.8238 9.86904 15.9413 10.0403C16.0588 10.2116 16.1379 10.4067 16.1732 10.612C16.1748 10.6727 16.1989 10.7306 16.2407 10.7743C16.2825 10.818 16.3389 10.8443 16.399 10.848C16.7099 10.854 17.0207 10.849 17.3326 10.85C17.3866 10.8564 17.441 10.8429 17.4859 10.8121C17.5309 10.7812 17.5633 10.735 17.5772 10.682C17.5799 10.258 17.4729 9.84061 17.2667 9.47122C17.0606 9.10182 16.7625 8.79323 16.4019 8.576C15.407 8.11208 14.3026 7.94119 13.2158 8.083C12.4195 8.11614 11.6587 8.42511 11.0613 8.958C10.7873 9.25661 10.6017 9.62694 10.5257 10.0268C10.4497 10.4267 10.4864 10.8401 10.6316 11.22C10.7447 11.4745 10.9111 11.7013 11.1193 11.8846C11.3275 12.068 11.5725 12.2035 11.8376 12.282C13.1019 12.743 14.4871 12.595 15.7623 13.003C16.0118 13.088 16.3009 13.219 16.3772 13.498C16.4181 13.6655 16.415 13.841 16.3681 14.0069C16.3212 14.1728 16.2322 14.3235 16.1099 14.444C15.5793 14.7771 14.9575 14.9308 14.3346 14.883V14.883ZM20.096 6.438C17.6287 5.02867 15.1604 3.62033 12.691 2.213C12.4434 2.07313 12.1644 1.99969 11.8806 1.99969C11.5969 1.99969 11.3179 2.07313 11.0703 2.213L3.69303 6.421C3.4537 6.55251 3.25358 6.74631 3.11343 6.98229C2.97328 7.21827 2.8982 7.48783 2.896 7.763V16.238C2.90005 16.5183 2.97913 16.7922 3.12486 17.0308C3.27058 17.2693 3.47752 17.4636 3.72372 17.593C4.42966 17.981 5.1158 18.409 5.8356 18.772C6.25073 18.996 6.71178 19.1195 7.18229 19.1325C7.65279 19.1455 8.11984 19.0478 8.54649 18.847C8.86582 18.6451 9.12566 18.3603 9.29894 18.0224C9.47221 17.6846 9.55257 17.3059 9.53164 16.926C9.53659 14.129 9.53164 11.332 9.53362 8.536C9.53854 8.50539 9.53699 8.47407 9.52908 8.4441C9.52117 8.41413 9.50708 8.38619 9.48772 8.36211C9.46837 8.33803 9.44419 8.31836 9.41678 8.30438C9.38937 8.2904 9.35934 8.28243 9.32867 8.281C9.01416 8.27736 8.69962 8.27736 8.3851 8.281C8.35609 8.27847 8.32687 8.28213 8.29934 8.29174C8.27181 8.30135 8.24659 8.31669 8.22531 8.33677C8.20403 8.35685 8.18716 8.38122 8.1758 8.40831C8.16444 8.43539 8.15884 8.46459 8.15936 8.494C8.1554 11.273 8.16035 14.052 8.15738 16.832C8.15795 17.0238 8.10039 17.2113 7.99243 17.3691C7.88447 17.527 7.73128 17.6477 7.55342 17.715C7.34874 17.7761 7.13358 17.7929 6.92202 17.7643C6.71046 17.7357 6.50726 17.6624 6.3257 17.549L4.36332 16.429C4.31993 16.4083 4.28385 16.3747 4.25995 16.3327C4.23605 16.2907 4.22548 16.2423 4.22966 16.194V7.807C4.22517 7.75265 4.23778 7.69826 4.26569 7.65157C4.2936 7.60489 4.33539 7.56829 4.3851 7.547C6.83593 6.15233 9.28642 4.75667 11.7366 3.36C11.7791 3.3305 11.8295 3.31472 11.8811 3.31472C11.9328 3.31472 11.9831 3.3305 12.0257 3.36L19.3782 7.546C19.4274 7.56782 19.4688 7.60456 19.4964 7.65114C19.5241 7.69772 19.5367 7.75184 19.5326 7.806V16.194C19.5368 16.2426 19.5264 16.2912 19.5027 16.3337C19.479 16.3762 19.4432 16.4104 19.4 16.432C16.9868 17.8107 14.5719 19.1873 12.1554 20.562C12.0405 20.626 11.9039 20.731 11.7693 20.652C11.1356 20.29 10.5118 19.914 9.88015 19.549C9.8479 19.524 9.80899 19.5093 9.76841 19.5068C9.72784 19.5043 9.68745 19.5141 9.65243 19.535C9.37469 19.6995 9.08233 19.8375 8.77916 19.947C8.64253 20.003 8.47421 20.019 8.38015 20.147C8.50036 20.2787 8.6459 20.3841 8.80788 20.457L11.0217 21.75C11.2659 21.9048 11.5467 21.9907 11.8348 21.9988C12.123 22.0069 12.408 21.9368 12.6604 21.796C15.1198 20.396 17.5792 18.9947 20.0386 17.592C20.2844 17.4624 20.4911 17.2683 20.6368 17.03C20.7824 16.7916 20.8617 16.518 20.8663 16.238V7.763C20.864 7.49336 20.7916 7.22906 20.6564 6.99654C20.5213 6.76401 20.328 6.57141 20.096 6.438V6.438Z" fill="#D14A20"/>
</svg>
